<svg xmlns="http://www.w3.org/2000/svg" xmlns:xlink="http://www.w3.org/1999/xlink" width="500" zoomAndPan="magnify" viewBox="0 0 375 374.999991" height="500" preserveAspectRatio="xMidYMid meet" version="1.2"><defs><clipPath id="a410958df2"><path d="M 141.160156 104.03125 L 233.832031 104.03125 L 233.832031 202.105469 L 141.160156 202.105469 Z M 141.160156 104.03125 "/></clipPath></defs><g id="260e3c58fe"><g style="fill:#242424;fill-opacity:1;"><g transform="translate(115.658405, 242.557191)"><path style="stroke:none" d="M 14.9375 -22.734375 C 13.832031 -22.734375 12.859375 -22.519531 12.015625 -22.09375 C 11.171875 -21.664062 10.457031 -21.046875 9.875 -20.234375 C 9.300781 -19.429688 8.863281 -18.460938 8.5625 -17.328125 C 8.269531 -16.191406 8.125 -14.910156 8.125 -13.484375 C 8.125 -11.566406 8.363281 -9.929688 8.84375 -8.578125 C 9.320312 -7.222656 10.0625 -6.191406 11.0625 -5.484375 C 12.0625 -4.773438 13.351562 -4.421875 14.9375 -4.421875 C 16.039062 -4.421875 17.144531 -4.539062 18.25 -4.78125 C 19.351562 -5.03125 20.554688 -5.382812 21.859375 -5.84375 L 21.859375 -1.015625 C 20.660156 -0.523438 19.476562 -0.171875 18.3125 0.046875 C 17.144531 0.265625 15.84375 0.375 14.40625 0.375 C 11.601562 0.375 9.300781 -0.203125 7.5 -1.359375 C 5.707031 -2.515625 4.375 -4.132812 3.5 -6.21875 C 2.632812 -8.3125 2.203125 -10.75 2.203125 -13.53125 C 2.203125 -15.582031 2.476562 -17.460938 3.03125 -19.171875 C 3.59375 -20.878906 4.410156 -22.351562 5.484375 -23.59375 C 6.566406 -24.84375 7.898438 -25.804688 9.484375 -26.484375 C 11.066406 -27.171875 12.882812 -27.515625 14.9375 -27.515625 C 16.28125 -27.515625 17.628906 -27.34375 18.984375 -27 C 20.335938 -26.664062 21.632812 -26.203125 22.875 -25.609375 L 21.015625 -20.9375 C 20.003906 -21.414062 18.984375 -21.832031 17.953125 -22.1875 C 16.929688 -22.550781 15.925781 -22.734375 14.9375 -22.734375 Z M 14.9375 -22.734375 "/></g></g><g style="fill:#242424;fill-opacity:1;"><g transform="translate(139.867293, 242.557191)"><path style="stroke:none" d="M 8.625 -28.875 L 8.625 -22.984375 C 8.625 -21.960938 8.585938 -20.988281 8.515625 -20.0625 C 8.453125 -19.132812 8.40625 -18.476562 8.375 -18.09375 L 8.671875 -18.09375 C 9.109375 -18.8125 9.632812 -19.390625 10.25 -19.828125 C 10.863281 -20.273438 11.539062 -20.601562 12.28125 -20.8125 C 13.019531 -21.03125 13.816406 -21.140625 14.671875 -21.140625 C 16.171875 -21.140625 17.476562 -20.875 18.59375 -20.34375 C 19.707031 -19.820312 20.570312 -19 21.1875 -17.875 C 21.8125 -16.757812 22.125 -15.3125 22.125 -13.53125 L 22.125 0 L 16.453125 0 L 16.453125 -12.109375 C 16.453125 -13.597656 16.179688 -14.71875 15.640625 -15.46875 C 15.097656 -16.226562 14.257812 -16.609375 13.125 -16.609375 C 11.976562 -16.609375 11.078125 -16.34375 10.421875 -15.8125 C 9.765625 -15.289062 9.300781 -14.519531 9.03125 -13.5 C 8.757812 -12.476562 8.625 -11.234375 8.625 -9.765625 L 8.625 0 L 2.96875 0 L 2.96875 -28.875 Z M 8.625 -28.875 "/></g></g><g style="fill:#242424;fill-opacity:1;"><g transform="translate(164.836766, 242.557191)"><path style="stroke:none" d="M 11.46875 -21.171875 C 14.25 -21.171875 16.378906 -20.5625 17.859375 -19.34375 C 19.347656 -18.132812 20.09375 -16.296875 20.09375 -13.828125 L 20.09375 0 L 16.140625 0 L 15.046875 -2.828125 L 14.90625 -2.828125 C 14.3125 -2.078125 13.703125 -1.46875 13.078125 -1 C 12.460938 -0.53125 11.75 -0.1875 10.9375 0.03125 C 10.132812 0.257812 9.160156 0.375 8.015625 0.375 C 6.785156 0.375 5.6875 0.140625 4.71875 -0.328125 C 3.75 -0.804688 2.984375 -1.53125 2.421875 -2.5 C 1.867188 -3.46875 1.59375 -4.703125 1.59375 -6.203125 C 1.59375 -8.398438 2.363281 -10.019531 3.90625 -11.0625 C 5.457031 -12.113281 7.78125 -12.691406 10.875 -12.796875 L 14.46875 -12.921875 L 14.46875 -13.828125 C 14.46875 -14.910156 14.179688 -15.707031 13.609375 -16.21875 C 13.046875 -16.726562 12.257812 -16.984375 11.25 -16.984375 C 10.238281 -16.984375 9.25 -16.835938 8.28125 -16.546875 C 7.320312 -16.265625 6.363281 -15.90625 5.40625 -15.46875 L 3.53125 -19.296875 C 4.625 -19.878906 5.851562 -20.335938 7.21875 -20.671875 C 8.59375 -21.003906 10.007812 -21.171875 11.46875 -21.171875 Z M 14.46875 -9.609375 L 12.28125 -9.53125 C 10.445312 -9.488281 9.175781 -9.160156 8.46875 -8.546875 C 7.757812 -7.941406 7.40625 -7.144531 7.40625 -6.15625 C 7.40625 -5.289062 7.65625 -4.675781 8.15625 -4.3125 C 8.664062 -3.945312 9.332031 -3.765625 10.15625 -3.765625 C 11.363281 -3.765625 12.382812 -4.125 13.21875 -4.84375 C 14.050781 -5.5625 14.46875 -6.582031 14.46875 -7.90625 Z M 14.46875 -9.609375 "/></g></g><g style="fill:#242424;fill-opacity:1;"><g transform="translate(187.784194, 242.557191)"><path style="stroke:none" d="M 11.703125 -4.140625 C 12.328125 -4.140625 12.929688 -4.203125 13.515625 -4.328125 C 14.109375 -4.453125 14.691406 -4.601562 15.265625 -4.78125 L 15.265625 -0.578125 C 14.660156 -0.304688 13.910156 -0.0820312 13.015625 0.09375 C 12.117188 0.28125 11.140625 0.375 10.078125 0.375 C 8.835938 0.375 7.722656 0.175781 6.734375 -0.21875 C 5.753906 -0.625 4.984375 -1.328125 4.421875 -2.328125 C 3.859375 -3.328125 3.578125 -4.71875 3.578125 -6.5 L 3.578125 -16.5 L 0.875 -16.5 L 0.875 -18.890625 L 3.984375 -20.78125 L 5.625 -25.15625 L 9.234375 -25.15625 L 9.234375 -20.75 L 15.046875 -20.75 L 15.046875 -16.5 L 9.234375 -16.5 L 9.234375 -6.5 C 9.234375 -5.707031 9.457031 -5.113281 9.90625 -4.71875 C 10.363281 -4.332031 10.960938 -4.140625 11.703125 -4.140625 Z M 11.703125 -4.140625 "/></g></g><g style="fill:#242424;fill-opacity:1;"><g transform="translate(204.275919, 242.557191)"><path style="stroke:none" d="M 1.125 -7.875 L 1.125 -12.5 L 11.09375 -12.5 L 11.09375 -7.875 Z M 1.125 -7.875 "/></g></g><g style="fill:#242424;fill-opacity:1;"><g transform="translate(216.500943, 242.557191)"><path style="stroke:none" d="M 3.421875 0 L 3.421875 -27.125 L 9.171875 -27.125 L 9.171875 0 Z M 3.421875 0 "/></g></g><g style="fill:#242424;fill-opacity:1;"><g transform="translate(229.078434, 242.557191)"><path style="stroke:none" d="M 28.03125 -13.59375 C 28.03125 -11.507812 27.769531 -9.609375 27.25 -7.890625 C 26.738281 -6.179688 25.953125 -4.707031 24.890625 -3.46875 C 23.835938 -2.226562 22.5 -1.273438 20.875 -0.609375 C 19.25 0.046875 17.332031 0.375 15.125 0.375 C 12.90625 0.375 10.984375 0.046875 9.359375 -0.609375 C 7.742188 -1.273438 6.40625 -2.226562 5.34375 -3.46875 C 4.289062 -4.707031 3.503906 -6.1875 2.984375 -7.90625 C 2.460938 -9.625 2.203125 -11.535156 2.203125 -13.640625 C 2.203125 -16.441406 2.660156 -18.882812 3.578125 -20.96875 C 4.503906 -23.0625 5.925781 -24.679688 7.84375 -25.828125 C 9.757812 -26.972656 12.195312 -27.546875 15.15625 -27.546875 C 18.101562 -27.546875 20.523438 -26.972656 22.421875 -25.828125 C 24.316406 -24.679688 25.722656 -23.0625 26.640625 -20.96875 C 27.566406 -18.875 28.03125 -16.414062 28.03125 -13.59375 Z M 8.234375 -13.59375 C 8.234375 -11.707031 8.472656 -10.078125 8.953125 -8.703125 C 9.429688 -7.335938 10.175781 -6.285156 11.1875 -5.546875 C 12.195312 -4.816406 13.507812 -4.453125 15.125 -4.453125 C 16.757812 -4.453125 18.082031 -4.816406 19.09375 -5.546875 C 20.101562 -6.285156 20.835938 -7.335938 21.296875 -8.703125 C 21.765625 -10.078125 22 -11.707031 22 -13.59375 C 22 -16.445312 21.46875 -18.6875 20.40625 -20.3125 C 19.34375 -21.945312 17.59375 -22.765625 15.15625 -22.765625 C 13.539062 -22.765625 12.222656 -22.394531 11.203125 -21.65625 C 10.179688 -20.925781 9.429688 -19.875 8.953125 -18.5 C 8.472656 -17.132812 8.234375 -15.5 8.234375 -13.59375 Z M 8.234375 -13.59375 "/></g></g><g style="fill:#242424;fill-opacity:1;"><g transform="translate(155.256059, 267.120011)"><path style="stroke:none" d="M 7.640625 0 L 6.40625 -3.171875 L 2.40625 -3.171875 L 1.171875 0 L 0 0 L 3.90625 -10.03125 L 4.953125 -10.03125 L 8.84375 0 Z M 6.0625 -4.203125 L 4.890625 -7.359375 C 4.859375 -7.441406 4.8125 -7.578125 4.75 -7.765625 C 4.6875 -7.953125 4.625 -8.144531 4.5625 -8.34375 C 4.5 -8.539062 4.445312 -8.703125 4.40625 -8.828125 C 4.363281 -8.640625 4.316406 -8.453125 4.265625 -8.265625 C 4.210938 -8.078125 4.160156 -7.90625 4.109375 -7.75 C 4.054688 -7.59375 4.015625 -7.460938 3.984375 -7.359375 L 2.796875 -4.203125 Z M 6.0625 -4.203125 "/></g></g><g style="fill:#242424;fill-opacity:1;"><g transform="translate(164.103657, 267.120011)"><path style="stroke:none" d="M 4.71875 -7.625 C 5.65625 -7.625 6.398438 -7.300781 6.953125 -6.65625 C 7.503906 -6.019531 7.78125 -5.054688 7.78125 -3.765625 C 7.78125 -2.910156 7.648438 -2.191406 7.390625 -1.609375 C 7.140625 -1.035156 6.785156 -0.597656 6.328125 -0.296875 C 5.867188 -0.00390625 5.320312 0.140625 4.6875 0.140625 C 4.289062 0.140625 3.941406 0.0859375 3.640625 -0.015625 C 3.335938 -0.117188 3.078125 -0.257812 2.859375 -0.4375 C 2.648438 -0.625 2.476562 -0.820312 2.34375 -1.03125 L 2.25 -1.03125 C 2.269531 -0.851562 2.289062 -0.632812 2.3125 -0.375 C 2.332031 -0.125 2.34375 0.09375 2.34375 0.28125 L 2.34375 3.34375 L 1.203125 3.34375 L 1.203125 -7.5 L 2.140625 -7.5 L 2.28125 -6.390625 L 2.34375 -6.390625 C 2.488281 -6.617188 2.664062 -6.828125 2.875 -7.015625 C 3.082031 -7.203125 3.335938 -7.347656 3.640625 -7.453125 C 3.941406 -7.566406 4.300781 -7.625 4.71875 -7.625 Z M 4.515625 -6.671875 C 3.992188 -6.671875 3.578125 -6.570312 3.265625 -6.375 C 2.953125 -6.175781 2.722656 -5.875 2.578125 -5.46875 C 2.429688 -5.070312 2.351562 -4.570312 2.34375 -3.96875 L 2.34375 -3.75 C 2.34375 -3.113281 2.410156 -2.578125 2.546875 -2.140625 C 2.679688 -1.703125 2.910156 -1.367188 3.234375 -1.140625 C 3.554688 -0.921875 3.988281 -0.8125 4.53125 -0.8125 C 5 -0.8125 5.382812 -0.9375 5.6875 -1.1875 C 6 -1.4375 6.234375 -1.785156 6.390625 -2.234375 C 6.546875 -2.679688 6.625 -3.195312 6.625 -3.78125 C 6.625 -4.664062 6.445312 -5.367188 6.09375 -5.890625 C 5.75 -6.410156 5.222656 -6.671875 4.515625 -6.671875 Z M 4.515625 -6.671875 "/></g></g><g style="fill:#242424;fill-opacity:1;"><g transform="translate(172.664306, 267.120011)"><path style="stroke:none" d="M 2.34375 0 L 1.203125 0 L 1.203125 -10.640625 L 2.34375 -10.640625 Z M 2.34375 0 "/></g></g><g style="fill:#242424;fill-opacity:1;"><g transform="translate(176.196514, 267.120011)"><path style="stroke:none" d="M 2.328125 -7.5 L 2.328125 0 L 1.203125 0 L 1.203125 -7.5 Z M 1.78125 -10.296875 C 1.96875 -10.296875 2.128906 -10.234375 2.265625 -10.109375 C 2.398438 -9.992188 2.46875 -9.804688 2.46875 -9.546875 C 2.46875 -9.296875 2.398438 -9.109375 2.265625 -8.984375 C 2.128906 -8.867188 1.96875 -8.8125 1.78125 -8.8125 C 1.582031 -8.8125 1.414062 -8.867188 1.28125 -8.984375 C 1.15625 -9.109375 1.09375 -9.296875 1.09375 -9.546875 C 1.09375 -9.804688 1.15625 -9.992188 1.28125 -10.109375 C 1.414062 -10.234375 1.582031 -10.296875 1.78125 -10.296875 Z M 1.78125 -10.296875 "/></g></g><g style="fill:#242424;fill-opacity:1;"><g transform="translate(179.728721, 267.120011)"><path style="stroke:none" d="M 4.203125 0.140625 C 3.523438 0.140625 2.925781 0 2.40625 -0.28125 C 1.894531 -0.5625 1.492188 -0.984375 1.203125 -1.546875 C 0.921875 -2.117188 0.78125 -2.835938 0.78125 -3.703125 C 0.78125 -4.609375 0.929688 -5.347656 1.234375 -5.921875 C 1.535156 -6.503906 1.953125 -6.929688 2.484375 -7.203125 C 3.015625 -7.484375 3.625 -7.625 4.3125 -7.625 C 4.6875 -7.625 5.046875 -7.585938 5.390625 -7.515625 C 5.734375 -7.441406 6.019531 -7.347656 6.25 -7.234375 L 5.90625 -6.28125 C 5.675781 -6.375 5.410156 -6.457031 5.109375 -6.53125 C 4.816406 -6.601562 4.539062 -6.640625 4.28125 -6.640625 C 3.757812 -6.640625 3.328125 -6.523438 2.984375 -6.296875 C 2.640625 -6.078125 2.378906 -5.75 2.203125 -5.3125 C 2.035156 -4.882812 1.953125 -4.351562 1.953125 -3.71875 C 1.953125 -3.113281 2.035156 -2.597656 2.203125 -2.171875 C 2.367188 -1.742188 2.617188 -1.414062 2.953125 -1.1875 C 3.285156 -0.957031 3.695312 -0.84375 4.1875 -0.84375 C 4.582031 -0.84375 4.941406 -0.882812 5.265625 -0.96875 C 5.585938 -1.050781 5.875 -1.148438 6.125 -1.265625 L 6.125 -0.265625 C 5.875 -0.128906 5.59375 -0.03125 5.28125 0.03125 C 4.976562 0.101562 4.617188 0.140625 4.203125 0.140625 Z M 4.203125 0.140625 "/></g></g><g style="fill:#242424;fill-opacity:1;"><g transform="translate(186.431033, 267.120011)"><path style="stroke:none" d="M 4 -7.609375 C 4.894531 -7.609375 5.554688 -7.40625 5.984375 -7 C 6.421875 -6.601562 6.640625 -5.96875 6.640625 -5.09375 L 6.640625 0 L 5.8125 0 L 5.59375 -1.109375 L 5.53125 -1.109375 C 5.320312 -0.835938 5.101562 -0.609375 4.875 -0.421875 C 4.65625 -0.234375 4.394531 -0.09375 4.09375 0 C 3.789062 0.09375 3.425781 0.140625 3 0.140625 C 2.539062 0.140625 2.132812 0.0625 1.78125 -0.09375 C 1.425781 -0.257812 1.144531 -0.503906 0.9375 -0.828125 C 0.738281 -1.148438 0.640625 -1.5625 0.640625 -2.0625 C 0.640625 -2.800781 0.9375 -3.367188 1.53125 -3.765625 C 2.125 -4.171875 3.023438 -4.394531 4.234375 -4.4375 L 5.53125 -4.484375 L 5.53125 -4.953125 C 5.53125 -5.597656 5.390625 -6.050781 5.109375 -6.3125 C 4.835938 -6.570312 4.445312 -6.703125 3.9375 -6.703125 C 3.539062 -6.703125 3.164062 -6.644531 2.8125 -6.53125 C 2.457031 -6.414062 2.125 -6.28125 1.8125 -6.125 L 1.453125 -6.984375 C 1.796875 -7.160156 2.1875 -7.304688 2.625 -7.421875 C 3.0625 -7.546875 3.519531 -7.609375 4 -7.609375 Z M 5.515625 -3.6875 L 4.375 -3.640625 C 3.4375 -3.609375 2.773438 -3.457031 2.390625 -3.1875 C 2.015625 -2.914062 1.828125 -2.535156 1.828125 -2.046875 C 1.828125 -1.617188 1.957031 -1.300781 2.21875 -1.09375 C 2.476562 -0.882812 2.820312 -0.78125 3.25 -0.78125 C 3.914062 -0.78125 4.457031 -0.960938 4.875 -1.328125 C 5.300781 -1.703125 5.515625 -2.257812 5.515625 -3 Z M 5.515625 -3.6875 "/></g></g><g style="fill:#242424;fill-opacity:1;"><g transform="translate(194.205988, 267.120011)"><path style="stroke:none" d="M 3.609375 -0.796875 C 3.796875 -0.796875 3.988281 -0.8125 4.1875 -0.84375 C 4.382812 -0.875 4.546875 -0.910156 4.671875 -0.953125 L 4.671875 -0.078125 C 4.535156 -0.015625 4.347656 0.0351562 4.109375 0.078125 C 3.878906 0.117188 3.65625 0.140625 3.4375 0.140625 C 3.039062 0.140625 2.675781 0.0703125 2.34375 -0.0625 C 2.019531 -0.207031 1.757812 -0.445312 1.5625 -0.78125 C 1.375 -1.113281 1.28125 -1.570312 1.28125 -2.15625 L 1.28125 -6.609375 L 0.21875 -6.609375 L 0.21875 -7.15625 L 1.296875 -7.609375 L 1.75 -9.234375 L 2.421875 -9.234375 L 2.421875 -7.5 L 4.625 -7.5 L 4.625 -6.609375 L 2.421875 -6.609375 L 2.421875 -2.1875 C 2.421875 -1.71875 2.53125 -1.367188 2.75 -1.140625 C 2.96875 -0.910156 3.253906 -0.796875 3.609375 -0.796875 Z M 3.609375 -0.796875 "/></g></g><g style="fill:#242424;fill-opacity:1;"><g transform="translate(199.193438, 267.120011)"><path style="stroke:none" d="M 2.328125 -7.5 L 2.328125 0 L 1.203125 0 L 1.203125 -7.5 Z M 1.78125 -10.296875 C 1.96875 -10.296875 2.128906 -10.234375 2.265625 -10.109375 C 2.398438 -9.992188 2.46875 -9.804688 2.46875 -9.546875 C 2.46875 -9.296875 2.398438 -9.109375 2.265625 -8.984375 C 2.128906 -8.867188 1.96875 -8.8125 1.78125 -8.8125 C 1.582031 -8.8125 1.414062 -8.867188 1.28125 -8.984375 C 1.15625 -9.109375 1.09375 -9.296875 1.09375 -9.546875 C 1.09375 -9.804688 1.15625 -9.992188 1.28125 -10.109375 C 1.414062 -10.234375 1.582031 -10.296875 1.78125 -10.296875 Z M 1.78125 -10.296875 "/></g></g><g style="fill:#242424;fill-opacity:1;"><g transform="translate(202.725645, 267.120011)"><path style="stroke:none" d="M 7.65625 -3.765625 C 7.65625 -3.148438 7.570312 -2.597656 7.40625 -2.109375 C 7.25 -1.628906 7.019531 -1.222656 6.71875 -0.890625 C 6.425781 -0.554688 6.066406 -0.300781 5.640625 -0.125 C 5.210938 0.0507812 4.726562 0.140625 4.1875 0.140625 C 3.6875 0.140625 3.226562 0.0507812 2.8125 -0.125 C 2.394531 -0.300781 2.035156 -0.554688 1.734375 -0.890625 C 1.429688 -1.222656 1.195312 -1.628906 1.03125 -2.109375 C 0.863281 -2.597656 0.78125 -3.148438 0.78125 -3.765625 C 0.78125 -4.578125 0.914062 -5.269531 1.1875 -5.84375 C 1.46875 -6.425781 1.867188 -6.867188 2.390625 -7.171875 C 2.910156 -7.472656 3.523438 -7.625 4.234375 -7.625 C 4.921875 -7.625 5.519531 -7.472656 6.03125 -7.171875 C 6.539062 -6.867188 6.9375 -6.425781 7.21875 -5.84375 C 7.507812 -5.269531 7.65625 -4.578125 7.65625 -3.765625 Z M 1.953125 -3.765625 C 1.953125 -3.160156 2.03125 -2.632812 2.1875 -2.1875 C 2.351562 -1.75 2.601562 -1.410156 2.9375 -1.171875 C 3.269531 -0.929688 3.695312 -0.8125 4.21875 -0.8125 C 4.738281 -0.8125 5.164062 -0.929688 5.5 -1.171875 C 5.832031 -1.410156 6.078125 -1.75 6.234375 -2.1875 C 6.398438 -2.632812 6.484375 -3.160156 6.484375 -3.765625 C 6.484375 -4.359375 6.398438 -4.875 6.234375 -5.3125 C 6.078125 -5.75 5.832031 -6.082031 5.5 -6.3125 C 5.164062 -6.550781 4.738281 -6.671875 4.21875 -6.671875 C 3.4375 -6.671875 2.863281 -6.410156 2.5 -5.890625 C 2.132812 -5.378906 1.953125 -4.671875 1.953125 -3.765625 Z M 1.953125 -3.765625 "/></g></g><g style="fill:#242424;fill-opacity:1;"><g transform="translate(211.14282, 267.120011)"><path style="stroke:none" d="M 4.75 -7.625 C 5.632812 -7.625 6.300781 -7.40625 6.75 -6.96875 C 7.207031 -6.539062 7.4375 -5.84375 7.4375 -4.875 L 7.4375 0 L 6.328125 0 L 6.328125 -4.8125 C 6.328125 -5.4375 6.179688 -5.898438 5.890625 -6.203125 C 5.609375 -6.515625 5.175781 -6.671875 4.59375 -6.671875 C 3.757812 -6.671875 3.171875 -6.4375 2.828125 -5.96875 C 2.492188 -5.5 2.328125 -4.816406 2.328125 -3.921875 L 2.328125 0 L 1.203125 0 L 1.203125 -7.5 L 2.109375 -7.5 L 2.28125 -6.40625 L 2.34375 -6.40625 C 2.5 -6.675781 2.703125 -6.898438 2.953125 -7.078125 C 3.203125 -7.253906 3.476562 -7.390625 3.78125 -7.484375 C 4.082031 -7.578125 4.40625 -7.625 4.75 -7.625 Z M 4.75 -7.625 "/></g></g><g clip-rule="nonzero" clip-path="url(#a410958df2)"><path style=" stroke:none;fill-rule:nonzero;fill:#5e17eb;fill-opacity:1;" d="M 199.671875 160.003906 C 197.351562 160.003906 195.472656 158.125 195.472656 155.804688 C 195.472656 153.484375 197.351562 151.605469 199.671875 151.605469 C 201.988281 151.605469 203.871094 153.484375 203.871094 155.804688 C 203.867188 158.121094 201.988281 160.003906 199.671875 160.003906 M 187.496094 160.003906 C 185.175781 160.003906 183.292969 158.125 183.292969 155.804688 C 183.292969 153.484375 185.175781 151.605469 187.496094 151.605469 C 189.8125 151.605469 191.691406 153.484375 191.691406 155.804688 C 191.691406 158.121094 189.8125 160.003906 187.496094 160.003906 Z M 175.316406 160.003906 C 172.992188 160.003906 171.113281 158.125 171.113281 155.804688 C 171.113281 153.484375 172.992188 151.605469 175.316406 151.605469 C 177.632812 151.605469 179.515625 153.484375 179.515625 155.804688 C 179.515625 158.121094 177.636719 160.003906 175.316406 160.003906 Z M 186.886719 114.636719 C 187.46875 114.796875 188.105469 114.734375 188.660156 114.414062 L 188.65625 114.410156 C 189.210938 114.089844 189.589844 113.570312 189.742188 112.996094 C 189.898438 112.417969 189.835938 111.78125 189.515625 111.226562 L 189.511719 111.203125 C 189.191406 110.664062 188.675781 110.296875 188.097656 110.140625 C 187.519531 109.984375 186.882812 110.042969 186.328125 110.363281 L 186.328125 110.367188 C 185.773438 110.6875 185.398438 111.207031 185.242188 111.78125 C 185.089844 112.363281 185.152344 112.996094 185.472656 113.550781 L 185.476562 113.574219 C 185.792969 114.117188 186.3125 114.484375 186.886719 114.636719 Z M 195.28125 110.164062 C 206.035156 111.988281 215.53125 117.519531 222.394531 125.394531 C 229.496094 133.535156 233.796875 144.171875 233.796875 155.800781 C 233.796875 168.589844 228.613281 180.164062 220.234375 188.539062 C 211.855469 196.921875 200.277344 202.105469 187.496094 202.105469 C 174.707031 202.105469 163.132812 196.921875 154.753906 188.542969 C 146.375 180.164062 141.191406 168.589844 141.191406 155.804688 C 141.191406 147.550781 143.402344 139.597656 147.402344 132.664062 L 147.410156 132.65625 L 147.402344 132.652344 C 151.398438 125.734375 157.183594 119.847656 164.34375 115.714844 C 165.328125 115.144531 166.507812 115.222656 167.394531 115.8125 L 182.488281 124.492188 C 188.773438 123.484375 195.066406 124.417969 200.636719 126.953125 C 206.445312 129.597656 211.464844 134.003906 214.847656 139.785156 L 214.949219 139.945312 C 218.140625 145.46875 219.519531 151.675781 219.140625 157.761719 C 218.871094 162.113281 217.707031 166.402344 215.671875 170.351562 C 217.21875 173.167969 216.234375 176.71875 213.4375 178.332031 C 210.605469 179.96875 206.980469 178.996094 205.34375 176.164062 C 203.710938 173.328125 204.679688 169.707031 207.515625 168.070312 C 208.535156 167.480469 209.660156 167.230469 210.757812 167.28125 C 212.292969 164.171875 213.175781 160.820312 213.386719 157.425781 C 213.699219 152.429688 212.570312 147.351562 209.964844 142.835938 L 209.882812 142.683594 C 207.117188 137.960938 203.011719 134.355469 198.246094 132.183594 C 193.445312 130.003906 187.972656 129.28125 182.527344 130.339844 C 181.734375 130.496094 180.957031 130.308594 180.34375 129.886719 L 168.65625 123.171875 L 168.628906 136.875 C 168.628906 137.597656 168.363281 138.261719 167.925781 138.765625 L 167.933594 138.773438 C 164.292969 142.957031 162.179688 148.058594 161.671875 153.300781 C 161.164062 158.558594 162.261719 163.972656 165.027344 168.769531 C 167.640625 173.289062 171.472656 176.804688 175.941406 179.027344 C 178.992188 180.542969 182.34375 181.457031 185.808594 181.683594 C 186.3125 180.707031 187.089844 179.863281 188.113281 179.273438 C 190.945312 177.636719 194.570312 178.609375 196.207031 181.441406 C 197.839844 184.277344 196.871094 187.898438 194.039062 189.539062 C 191.242188 191.152344 187.675781 190.230469 186.011719 187.484375 C 181.582031 187.273438 177.285156 186.136719 173.390625 184.199219 C 167.914062 181.476562 163.226562 177.179688 160.039062 171.660156 C 156.65625 165.796875 155.320312 159.183594 155.9375 152.761719 C 156.523438 146.667969 158.867188 140.753906 162.878906 135.8125 L 162.902344 123.589844 C 158.605469 126.871094 155.050781 130.949219 152.398438 135.542969 L 152.390625 135.539062 C 148.902344 141.585938 146.976562 148.554688 146.976562 155.804688 C 146.976562 166.996094 151.511719 177.125 158.847656 184.460938 C 166.179688 191.792969 176.308594 196.328125 187.503906 196.328125 C 198.691406 196.328125 208.824219 191.792969 216.15625 184.460938 C 223.480469 177.125 228.015625 166.996094 228.015625 155.800781 C 228.015625 145.605469 224.261719 136.292969 218.0625 129.1875 C 212.144531 122.398438 204.003906 117.601562 194.78125 115.925781 C 194.101562 117.335938 193.003906 118.558594 191.546875 119.398438 L 191.523438 119.40625 C 189.585938 120.519531 187.386719 120.746094 185.398438 120.214844 C 183.40625 119.679688 181.609375 118.378906 180.488281 116.4375 L 180.484375 116.4375 C 179.363281 114.5 179.132812 112.289062 179.667969 110.292969 C 180.203125 108.292969 181.503906 106.496094 183.441406 105.378906 L 183.464844 105.371094 C 185.402344 104.261719 187.597656 104.03125 189.589844 104.5625 C 191.582031 105.097656 193.375 106.398438 194.5 108.339844 L 194.503906 108.335938 C 194.84375 108.925781 195.101562 109.539062 195.28125 110.164062 Z M 195.28125 110.164062 "/></g></g></svg>